<?xml version="1.0" encoding="UTF-8" standalone="no"?>
<!-- Uploaded to: SVG Repo, www.svgrepo.com, Generator: SVG Repo Mixer Tools -->

<svg
   height="800"
   width="800"
   version="1.1"
   id="_x32_"
   viewBox="0 0 512 512"
   xml:space="preserve"
   xmlns="http://www.w3.org/2000/svg"
   xmlns:svg="http://www.w3.org/2000/svg"><defs
   id="defs4" />&#10;<style
   type="text/css"
   id="style1">&#10;	.st0{fill:#000000;}&#10;</style>&#10;<g
   id="g1"
   transform="matrix(-0.45990934,-0.45990934,0.45990934,-0.45990934,172.45504,512.36205)"><path
     id="path7"
     d="m 140.15512,508.89993 152.6475,-152.66328 c -7.34003,-0.93266 -18.71377,-2.38367 -21.64411,-2.75614 -17.14286,-2.181 -29.34204,-2.56158 -40.81084,-1.5832 l -1.20713,1.20713 13.7991,13.7991 -19.50336,19.49285 -13.80437,-13.80437 -15.69,15.68475 13.7991,13.7991 -19.50073,19.49548 -13.807,-13.80699 -15.69263,15.68737 13.7991,13.79911 -19.50073,19.49547 -13.80437,-13.80436 -15.69526,15.68474 13.7991,13.79911 -21.1076,21.03397 -88.638277,-88.63827 c -4.375996,4.81999 -8.068543,9.74719 -11.216539,14.91418 l 85.135236,85.12472 c -3.761992,2.402 -7.532624,4.48018 -11.32962,6.25917 -4.206996,1.984 -8.450447,3.61103 -12.773442,4.91003 L 6.043182,444.66454 c -1.707998,7.15999 -2.621328,14.83618 -2.790328,23.35617 l 52.203588,52.19833 c -4.534995,0.4 -9.160266,0.54409 -13.883261,0.51809 -10.57499,-0.106 -21.601499,-1.23131 -33.110488,-2.98231 0.48,2.632 0.941259,5.16009 1.412259,7.62409 1.146999,5.967 2.287348,12.23829 3.337347,18.72229 3.939996,0.55199 7.859973,1.01336 11.781969,1.40436 20.00298,1.984 40.041598,1.74537 59.572578,-3.55563 9.76599,-2.64099 19.345664,-6.56514 28.639654,-12.00814 9.28499,-5.43399 18.30263,-12.39686 26.94862,-21.04186 z m 197.0955,-198.33155 c 6.57656,-8.12273 11.91581,-16.49204 15.96878,-25.09455 8.92099,-18.96298 11.97018,-38.87822 11.76618,-58.8362 -0.205,-19.96698 -3.51039,-40.04978 -7.31639,-60.20376 -2.50799,-13.14598 -4.65416,-25.77532 -5.85416,-37.84431 -1.797,-18.11698 -1.44155,-34.865668 2.85344,-50.696652 2.162,-7.923992 5.32036,-15.646285 9.77535,-23.277278 4.473,-7.648992 10.26427,-15.208485 17.77026,-22.714478 L 394.54044,19.574794 374.97659,4.2078459e-4 362.63708,12.31889 C 351.08309,23.871878 342.58289,36.038911 336.65889,48.658899 327.7299,67.62088 324.6707,87.551383 324.8927,107.50036 c 0.187,19.96698 3.50466,40.04078 7.32165,60.20376 2.49,13.13598 4.64265,25.77532 5.84365,37.84431 1.805,18.11698 1.44103,34.87467 -2.86396,50.69665 -2.152,7.916 -5.31136,15.64255 -9.77536,23.28254 -4.47399,7.63999 -10.26426,15.19171 -17.77026,22.6987 v 0.0105 l 0.008,-0.003 -4.24729,4.24729 c 10.93842,1.28567 21.98009,2.61185 33.8416,4.08688 z m -55.50149,-6.61158 -1.71469,-1.7147 -1.38859,1.38859 c 1.13727,0.12552 1.9428,0.19662 3.10328,0.32611 z"
     style="fill:#ffffff;fill-opacity:1;stroke-width:0.999739;stroke-dasharray:none" /><path
     class="st0"
     d="m 492.42,117.463 -12.319,12.318 c -1.458,1.45 -2.89,2.829 -4.349,4.145 L 387.106,45.28 c -4.367,4.83 -8.058,9.766 -11.207,14.915 l 85.124,85.134 c -3.762,2.41 -7.516,4.482 -11.322,6.261 -4.207,1.983 -8.458,3.61 -12.771,4.909 L 365.565,85.143 c -1.708,7.15 -2.624,14.826 -2.784,23.346 l 52.198,52.199 c -4.536,0.409 -9.16,0.543 -13.884,0.516 -10.574,-0.098 -21.603,-1.227 -33.112,-2.988 0.48,2.633 0.933,5.177 1.422,7.64 1.13,5.967 2.269,12.228 3.327,18.713 3.94,0.551 7.853,1.014 11.775,1.406 20.012,1.982 40.059,1.751 59.573,-3.558 9.765,-2.641 19.353,-6.555 28.647,-12.006 9.276,-5.425 18.295,-12.399 26.957,-21.053 l 12.31,-12.327 z"
     id="path2"
     style="fill:#ffffff;fill-opacity:1" /><path
     style="display:inline;fill:#ffffff;fill-opacity:1"
     d="m -45.560856,633.46586 -85.116004,-85.115 c 3.745,-2.428 7.516,-4.509 11.313,-6.279 4.216,-1.984 8.458,-3.62 12.772,-4.91 l 71.365004,71.366 c 1.708,-7.151 2.624004,-14.836 2.784004,-23.356 l -52.180004,-52.181 c 4.536,-0.4 9.152,-0.569 13.874,-0.534 10.566,0.098 21.604,1.245 33.086,2.998 -0.462,-2.641 -0.924,-5.194 -1.396,-7.649 -1.138,-5.959 -2.268,-12.238 -3.326,-18.722 -3.932,-0.516 -7.844,-0.987 -11.767,-1.379 -20.021,-2.01 -40.076,-1.779 -59.599004,3.531 -9.729,2.669 -19.344,6.582 -28.638,12.016 -9.276,5.425 -18.295,12.389 -26.949,21.052 l -12.318,12.318 19.576,19.585 12.318,-12.327 c 1.45,-1.45 2.9,-2.828 4.359,-4.145 l 88.646004,88.638 c 4.357,-4.82 8.065,-9.756 11.196,-14.907 z"
     id="path3" /><path
     d="m -21.44792,565.05418 c 1.797,18.117 1.44,34.865 -2.855,50.696 -2.161999,7.924 -5.318999,15.645 -9.773996,23.276 -4.473,7.649 -10.264,15.209 -17.77,22.715 l -12.327,12.328 19.566,19.575 12.335997,-12.319 c 11.553999,-11.553 20.055999,-23.72 25.979999,-36.34 8.929,-18.962 11.989,-38.893 11.767,-58.842 -0.187,-19.967 -3.504,-40.041 -7.321,-60.204 -2.49,-13.136 -4.642,-25.775 -5.843,-37.844 -1.805,-18.117 -1.441,-34.874 2.864,-50.696 2.152,-7.916 5.30999998,-15.644 9.774,-23.284 4.474,-7.64 10.264,-15.191 17.77,-22.698 v -0.009 l -0.009,2.5e-4 16.808483,-16.75097 13.804929,13.80493 15.69275,-15.68635 -13.798539,-13.79855 19.50126,-19.49486 13.804919,13.80493 15.692748,-15.68636 -13.798527,-13.79854 19.501247,-19.49486 13.80493,13.80492 15.69275,-15.68636 -13.79853,-13.79854 19.50125,-19.49485 13.80491,13.80491 15.69275,-15.68636 -13.79852,-13.79853 19.50126,-19.49486 13.80492,13.80492 15.69276,-15.68636 -13.79855,-13.79854 18.1174,-18.09183 88.637,88.637 c 4.376,-4.82 8.48878,-10.16878 11.63678,-15.33578 l -85.55478,-84.70322 c 3.762,-2.402 7.534,-4.482 11.331,-6.261 4.207,-1.984 8.449,-3.611 12.772,-4.91 l 71.365,71.365 c 1.708,-7.16 2.624,-14.835 2.793,-23.355 l -52.207,-52.199 c 4.535,-0.4 9.16,-0.542 13.883,-0.516 10.575,0.106 21.603,1.228 33.112,2.979 -0.48,-2.632 -0.943,-5.158 -1.414,-7.622 -1.147,-5.967 -2.285,-12.238 -3.335,-18.722 -3.94,-0.552 -7.862,-1.014 -11.784,-1.405 -20.003,-1.984 -40.041,-1.743 -59.572,3.558 -9.766,2.641 -19.345,6.564 -28.639,12.007 -9.285,5.434 -18.303,12.398 -26.949,21.043 L 3.14408,371.83218 c -11.554,11.536 -20.047,23.711 -25.997,36.34 -8.920999,18.963 -11.970996,38.876 -11.766996,58.834 0.205,19.967 3.513997,40.05 7.319997,60.204 2.507999,13.146 4.651999,25.775 5.851999,37.844 z"
     id="path8"
     style="fill:#ffffff;fill-opacity:1" /><path
     d="m 384.86659,355.01478 c -13.136,-2.49 -109.80019,-12.02098 -121.86919,-13.22198 -18.117,-1.805 -34.874,-1.441 -50.696,2.864 -7.916,2.152 -15.644,5.31 -23.284,9.774 -7.64,4.474 -15.191,10.264 -22.698,17.77 h -0.009 l 2.5e-4,-0.009 -13.72683,13.73321 13.80493,13.80493 -15.68635,15.69275 -13.79854,-13.79853 -19.49486,19.50125 13.80492,13.80493 -15.68636,15.69275 L 101.72902,436.82455 82.132332,417.22786 146.7344,352.6258 c 11.536,-11.554 23.711,-20.047 36.34,-25.997 18.963,-8.921 38.876,-11.971 58.834,-11.767 19.967,0.205 124.07519,10.89298 144.22919,14.69898 z"
     id="path9"
     style="fill:#ffffff;fill-opacity:1" /></g>&#10;</svg>
