<?xml version="1.0" encoding="UTF-8" standalone="no"?>
<!-- Uploaded to: SVG Repo, www.svgrepo.com, Generator: SVG Repo Mixer Tools -->

<svg
   height="800"
   width="800"
   version="1.1"
   id="_x32_"
   viewBox="0 0 512 512"
   xml:space="preserve"
   xmlns="http://www.w3.org/2000/svg"
   xmlns:svg="http://www.w3.org/2000/svg"><defs
   id="defs4" />&#10;<style
   type="text/css"
   id="style1">&#10;	.st0{fill:#000000;}&#10;</style>&#10;<g
   id="g4"
   transform="matrix(-0.23765129,-0.23765129,0.23765129,-0.23765129,256.00107,377.67877)">&#10;	&#10;	&#10;	&#10;	&#10;<g
   id="g44"
   transform="matrix(2.9657732,0,0,2.9657732,-429.8365,-446.10555)"
   style="fill:#ffffff;fill-opacity:1;stroke:#ffffff;stroke-opacity:1"><path
     id="path8"
     style="fill:#ffffff;fill-opacity:1;stroke:#ffffff;stroke-width:0.999733;stroke-dasharray:none;stroke-opacity:1"
     d="m 503.39218,145.66287 -19.67168,-19.67168 -16.77887,16.77887 -13.79641,-13.79653 -15.68738,15.69263 13.80436,13.80437 -19.49547,19.50073 -13.79911,-13.7991 -15.68474,15.69526 13.80436,13.80437 -19.49547,19.50073 -13.79911,-13.7991 -15.68211,15.69263 13.80436,13.80437 -19.49547,19.50073 -13.79911,-13.7991 -15.68737,15.69263 13.80699,13.807 -19.49548,19.50073 -13.7991,-13.7991 -15.68738,15.69263 13.80437,13.80437 -16.74723,16.80508 -0.003,-0.003 -0.0868,-0.0868 -13.79647,-13.79648 -15.68738,15.69264 13.80437,13.80436 -19.49548,19.50074 -13.7991,-13.79911 -15.68212,15.69264 13.80437,13.80436 -19.49548,19.50074 -13.7991,-13.79911 -15.68475,15.69527 13.80437,13.80436 -19.49548,19.50074 -13.7991,-13.79911 -15.68738,15.69264 13.80699,13.80699 -19.49547,19.50074 -13.79911,-13.79911 -15.68737,15.69264 13.80465,13.80407 -16.75014,16.80801 19.577,19.56648 173.22386,-173.20282 z M 120.59653,489.294 l 0.003,-0.008 -0.0105,4e-5 z" /><path
     d="m 272.95049,443.40096 c 20.54702,3.18641 45.15949,-2.0877 64.60773,-13.40499 10.43833,-6.26301 27.7989,-23.62358 34.06189,-34.06191 11.31734,-19.44828 16.59145,-44.06068 13.405,-64.6077 -2.08766,-13.95444 -4.39508,-17.80014 -11.20744,-17.80014 -4.17534,0 -5.8235,1.42845 -61.53119,57.13611 -55.70767,55.70767 -57.13607,57.35581 -57.13607,61.53118 0,6.81235 3.8457,9.11975 17.80008,11.20745 z"
     id="path1-0"
     style="fill:#ffffff;fill-opacity:1;stroke:#ffffff;stroke-width:15.234;stroke-dasharray:none;stroke-opacity:1" /><path
     d="M 10.5,0.9 C 6.2,2 3.3,3.7 1.6,6.2 0.2,8.2 0,15.4 0,64 c 0,61.2 -0.3,58.1 6.3,61.8 2.6,1.4 5.8,1.7 17.7,1.7 13.2,-0.1 15.1,-0.3 21.2,-2.7 19.3,-7.4 32.2,-20.3 39.6,-39.6 2.4,-6.1 2.6,-8 2.6,-21.2 C 87.4,50.8 87.2,48.9 84.8,42.8 77.4,23.5 64.3,10.4 45.2,3.2 39.6,1.1 36.4,0.6 26,0.4 19.1,0.2 12.2,0.4 10.5,0.9 Z"
     id="path1"
     style="fill:#ffffff;fill-opacity:1;stroke:#ffffff;stroke-width:9.80376;stroke-dasharray:none;stroke-opacity:1"
     transform="matrix(-1.0987708,-1.0987708,1.0987708,-1.0987708,172.79335,371.61777)" /><g
     id="g42"
     transform="translate(-28.01958,-8.0211007)"
     style="fill:#ffffff;fill-opacity:1;stroke:#ffffff;stroke-width:15.234;stroke-dasharray:none;stroke-opacity:1"><path
       id="path40"
       style="display:inline;fill:none;fill-opacity:1;stroke:#ffffff;stroke-opacity:1"
       d="m 72.15343,233.17254 a 28.801838,28.801838 0 0 1 0,-40.73195 28.801838,28.801838 0 0 1 40.73195,0 28.801838,28.801838 0 0 1 -1e-5,40.73194 28.801838,28.801838 0 0 1 -40.73194,1e-5 z" /><path
       id="path41"
       style="display:inline;fill:none;fill-opacity:1;stroke:#ffffff;stroke-opacity:1"
       d="m 89.879177,287.81182 a 28.801838,28.801838 45 0 1 0,-40.73195 28.801838,28.801838 45 0 1 40.731953,0 28.801838,28.801838 45 0 1 -1e-5,40.73194 28.801838,28.801838 45 0 1 -40.731943,1e-5 z" /><path
       id="path42"
       style="display:inline;fill:none;fill-opacity:1;stroke:#ffffff;stroke-opacity:1"
       d="m 12.834851,228.91161 a 28.801838,28.801837 45 0 1 0,-40.73195 28.801838,28.801837 45 0 1 40.73195,0 28.801838,28.801837 45 0 1 -10e-6,40.73194 28.801838,28.801837 45 0 1 -40.73194,1e-5 z" /></g></g></g>&#10;</svg>
