<?xml version="1.0" encoding="UTF-8" standalone="no"?>
<!-- Uploaded to: SVG Repo, www.svgrepo.com, Generator: SVG Repo Mixer Tools -->

<svg
   fill="#000000"
   width="800"
   height="800"
   viewBox="0 0 1920 1920"
   version="1.1"
   id="svg1"
   xmlns="http://www.w3.org/2000/svg"
   xmlns:svg="http://www.w3.org/2000/svg">
  <defs
     id="defs1" />
  <path
     d="m 1564.9892,1213.001 -80.3061,137.2124 -182.2931,-60.8501 -18.5985,16.8843 c -53.0507,48.2518 -113.9866,83.2193 -181.0933,103.7877 l -24.3407,7.5429 -37.5384,185.2071 H 879.18017 l -37.53845,-185.2936 -24.34065,-7.5421 c -67.10602,-20.5685 -128.04264,-55.536 -181.09336,-103.7878 l -18.59773,-16.8842 -182.29385,60.8509 -80.30533,-137.2141 143.9829,-124.7856 -5.65566,-25.0252 c -7.88438,-34.711 -11.82733,-69.42121 -11.82733,-103.10322 0,-33.68201 3.94219,-68.39225 11.82733,-103.1025 l 5.65642,-25.02589 -143.98366,-124.78568 80.30533,-137.21325 182.29385,60.76436 18.59773,-16.88426 c 53.05072,-48.25104 113.98734,-83.21853 181.09336,-103.87348 l 24.34065,-7.45639 37.53845,-185.20781 h 161.63893 l 37.5384,185.29432 24.3407,7.45563 c 67.1067,20.65495 128.0426,55.53669 181.0933,103.87424 l 18.5985,16.88426 182.2931,-60.85087 80.3053,137.21325 -143.9829,124.78568 5.6557,25.02665 c 7.8844,34.70949 11.8273,69.41973 11.8273,103.10174 0,33.68201 -3.9422,68.39222 -11.8273,103.10322 l -5.6564,25.0252 143.9836,124.8722 z m -40.7954,-253.00062 c 0,-31.71054 -2.914,-64.10707 -8.8284,-96.58859 l 159.4967,-138.1565 -151.3543,-258.65623 -201.2346,67.10678 c -50.8227,-42.16664 -108.7589,-75.4199 -169.867,-97.44608 L 1110.9256,231.51022 H 809.07369 l -41.48064,204.66303 c -61.79335,22.11193 -118.70128,54.8507 -169.95278,97.44608 L 396.4922,466.59906 245.13715,725.25529 404.54732,863.41179 c -5.82791,32.48152 -8.74187,64.87805 -8.74187,96.58859 0,31.71129 2.91396,64.10702 8.74187,96.50362 l -159.40941,138.2415 151.35429,258.657 201.23458,-67.1926 c 50.82275,42.2524 108.75967,75.4199 169.86703,97.5319 l 41.48064,204.748 h 301.85185 l 41.4807,-204.6623 c 61.7076,-22.1977 118.7012,-54.8514 169.867,-97.5318 l 201.2346,67.1925 151.3543,-258.657 -159.4967,-138.2415 c 5.9136,-32.4823 8.8276,-64.87803 8.8276,-96.58932 z M 959.99014,660.0259 c -165.40883,0 -299.96538,134.55654 -299.96538,299.96613 0,165.40957 134.55655,299.96617 299.96613,299.96617 165.41031,0 299.96611,-134.5566 299.96611,-299.96617 0,-165.40959 -134.5558,-299.96613 -299.96611,-299.96613 m 0,514.2278 c -118.10103,0 -214.26163,-96.1606 -214.26163,-214.26167 0,-118.10103 96.1606,-214.26163 214.26163,-214.26163 118.10101,0 214.26241,96.1606 214.26241,214.26163 0,118.10107 -96.1606,214.26167 -214.26165,214.26167"
     fill="#ffffff"
     fill-rule="evenodd"
     id="path1"
     style="stroke-width:0.758843" />
</svg>
